<svg id="Layer_1" xmlns="http://www.w3.org/2000/svg" width="394" height="205" viewBox="0 0 394 205"><style>.st0,.st1{fill-rule:evenodd;clip-rule:evenodd;fill:#f8971d}.st1{fill:#a7a9ac}.st2{fill:#fbaf56}.st3{fill:#fdc88a}.st4{fill:#ffe1c0}.st5{fill:#f8971d}</style><path class="st0" d="M65.9 165.1c-2.8 3.7-6.5 6.4-11 8.3a39 39 0 0 1-15.3 2.9c-7.7 0-13.6-1.7-17.8-5-4.2-3.3-6.3-7.9-6.3-13.9 0-3.2.8-6.1 2.3-8.6 1.5-2.5 3.8-4.7 6.8-6.5 1.5-.9 3.6-1.7 6.4-2.3 2.8-.6 7.4-1.3 13.7-1.9 1.1-.1 2.7-.3 4.8-.5 10.7-1 16-3.8 16-8.2 0-3.3-1.3-5.7-3.8-7.2-2.6-1.5-6.7-2.3-12.4-2.3-6.5 0-11.2 1-14.2 2.9s-4.6 5.1-4.9 9.4l-11.7.1c.4-7.3 3.1-12.9 8.1-16.6 5-3.7 12.4-5.6 22-5.6 10.4 0 17.8 1.6 22.1 4.7 4.3 3.1 6.5 8.5 6.5 16.1v25.2c0 3.5.4 5.9 1.2 7.2.8 1.3 2.3 2 4.4 2 .4 0 1 0 1.5-.1s1.1-.2 1.7-.3v9.1c-1.5.2-3 .3-4.4.4-1.5.1-2.9.1-4.3.1-3.3 0-5.8-.8-7.6-2.3-2-1.3-3.2-3.7-3.8-7.1zm-.3-22.4c-1.6.9-3.9 1.7-6.9 2.4-3 .7-7 1.3-12 1.9-8.1.9-13.3 2.1-15.5 3.5-2.2 1.4-3.3 3.6-3.3 6.6 0 3 1.2 5.4 3.6 7.1 2.4 1.7 5.8 2.6 10.1 2.6 6.9 0 12.6-1.4 17.2-4.3 4.6-2.8 6.8-6.3 6.8-10.4v-9.4z"/><path class="st1" d="M208.7 143.6c0 7 2.1 12.6 6.2 16.7 4.2 4.1 9.8 6.1 16.9 6.1 7.2 0 12.8-2 16.9-6.1 4.1-4.1 6.2-9.6 6.2-16.7s-2.1-12.6-6.2-16.7c-4.2-4.1-9.8-6.1-16.9-6.1-7.1 0-12.8 2-16.9 6.2-4.1 4-6.2 9.6-6.2 16.6zm-11.8 0c0-10.1 3.2-18.2 9.5-24.3 6.3-6.1 14.8-9.1 25.5-9.1 10.6 0 19.1 3 25.4 9.1 6.3 6.1 9.5 14.2 9.5 24.3 0 10.2-3.1 18.3-9.5 24.3-6.3 6.1-14.8 9.1-25.4 9.1-10.6 0-19.1-3-25.5-9.1-6.3-6.1-9.5-14.1-9.5-24.3z"/><path class="st0" d="M272 174.8v-62.5h11.2v10.6c2.9-4.1 6.2-7.3 10.2-9.4a25.61 25.61 0 0 1 15.7-3c.8.2 1.5.5 2.2.8v11.9c-1.5-.4-2.9-.8-4.2-1-1.3-.2-2.6-.3-3.9-.3-5.6 0-10.3 2.1-14.1 6.4-3.8 4.2-5.7 9.5-5.7 15.9v30.6H272zm94.8-31c0-6.9-2-12.4-6.1-16.4-4.1-4-9.7-6-16.7-6-7.1 0-12.7 2-16.7 6s-6.1 9.5-6.1 16.4c0 7 2 12.5 6.1 16.5 4 4 9.6 6 16.7 6s12.6-2 16.7-6c4-4 6.1-9.5 6.1-16.5zm11.4-53.3v84.3h-11.5v-9.1c-3.1 3.7-6.7 6.5-10.6 8.3-4 1.8-8.5 2.7-13.5 2.7-9.8 0-17.9-3-24.1-9.1-6.2-6.1-9.3-14-9.3-23.7s3.1-17.6 9.3-23.6c6.2-6 14.3-9.1 24.2-9.1 5 0 9.5.9 13.4 2.6 3.9 1.7 7.4 4.4 10.6 8.1V90.5h11.5z"/><path class="st1" d="M132.8 131.1c-1.2-2.9-3.2-5.3-5.9-7.1-3.2-2.2-7.1-3.2-11.7-3.2-7.1 0-12.8 2-16.9 6.1-4.2 4.1-6.2 9.7-6.2 16.7 0 6.9 2 12.4 6.1 16.6 4.1 4.2 9.5 6.2 16.3 6.2 5.1 0 9.5-1.4 13-4.1 2.3-1.8 4.1-4 5.2-6.7 1.4 4.1 3.5 7.7 6.4 10.8-1.1 1.3-2.4 2.5-3.8 3.7-5.7 4.6-12.7 6.8-21.2 6.8-10 0-18.1-3.1-24.4-9.3-6.2-6.2-9.4-14.2-9.4-24.1 0-9.9 3.1-18 9.4-24.1 6.3-6.2 14.5-9.3 24.6-9.3 8.2 0 15.1 2 20.6 6.1 1.7 1.2 3.1 2.6 4.4 4a32.9 32.9 0 0 0-6.5 10.9z"/><path class="st1" d="M190.2 131.1c-1.2-2.9-3.2-5.3-5.9-7.1-3.2-2.2-7.1-3.2-11.7-3.2-7.1 0-12.8 2-16.9 6.1-4.2 4.1-6.2 9.7-6.2 16.7 0 6.9 2 12.4 6.1 16.6 4.1 4.2 9.5 6.2 16.3 6.2 5.1 0 9.5-1.4 13-4.1 2.3-1.8 4.1-4 5.2-6.7 1.4 4.1 3.5 7.7 6.4 10.8-1.1 1.3-2.4 2.5-3.8 3.7-5.7 4.6-12.7 6.8-21.2 6.8-10 0-18.1-3.1-24.4-9.3-6.2-6.2-9.4-14.2-9.4-24.1 0-9.9 3.1-18 9.4-24.1 6.3-6.2 14.5-9.3 24.6-9.3 8.2 0 15.1 2 20.6 6.1 1.7 1.2 3.1 2.6 4.4 4a32.9 32.9 0 0 0-6.5 10.9z"/><path class="st2" d="M222.9 84.8h-20.5l-10.3-17.4L202.4 50h20.5l10.3 17.4-10.3 17.4zm-18.2-3.9h16l8-13.5-8-13.5h-16l-8 13.5 8 13.5z"/><path class="st3" d="M207.2 103.9h-20.5l-10.3-17.8 10.3-17.8h20.5l10.3 17.8-10.3 17.8zm-18.3-4h16l8-13.8-8-13.8h-16l-8 13.8 8 13.8z"/><path class="st4" d="M191.3 85.2h-20.5l-10.3-17.8 10.3-17.8h20.5l10.3 17.8-10.3 17.8zm-18.2-4h16l8-13.8-8-13.8h-16l-8 13.8 8 13.8z"/><path class="st5" d="M207.2 66.5h-20.5l-10.3-17.8 10.3-17.8h20.5l10.3 17.8-10.3 17.8zm-18.3-4h16l8-13.8-8-13.8h-16l-8 13.8 8 13.8z"/></svg>